<?xml version="1.0" encoding="UTF-8"?>
<svg width="200px" height="200px" viewBox="0 0 200 200" version="1.1" xmlns="http://www.w3.org/2000/svg" xmlns:xlink="http://www.w3.org/1999/xlink">
    <!-- Generator: Sketch 52.2 (67145) - http://www.bohemiancoding.com/sketch -->
    <title>200x200</title>
    <desc>Created with Sketch.</desc>
    <g id="200x200" stroke="none" stroke-width="1" fill="none" fill-rule="evenodd">
        <rect fill="#FFFFFF" x="0" y="0" width="200" height="200"></rect>
        <g id="microphone-2" transform="translate(65.000000, 51.000000)" fill="#000000" fill-rule="nonzero">
            <path d="M67.9411765,41.1202186 C66.8047059,41.1202186 65.8823529,42.0392555 65.8823529,43.1762295 L65.8823529,49.3442623 L61.7647059,49.3442623 L61.7647059,26.7281421 C61.7647059,11.9906557 49.7576471,0 35,0 C20.2402941,0 8.23529412,11.9906557 8.23529412,26.7281421 L8.23529412,49.3442623 L4.11764706,49.3442623 L4.11764706,43.1762295 C4.11764706,42.0392555 3.19529412,41.1202186 2.05882353,41.1202186 C0.922352941,41.1202186 0,42.0392555 0,43.1762295 L0,51.4002732 C0,70.3032377 14.315,85.215485 32.9411765,86.2517145 L32.9411765,98.6885246 L37.0588235,98.6885246 L37.0588235,86.2517145 C55.685,85.215485 70,70.3032377 70,51.4002732 L70,43.1762295 C70,42.0392555 69.0776471,41.1202186 67.9411765,41.1202186 Z M12.3529412,45.2322404 L26.7647059,45.2322404 C27.9011765,45.2322404 28.8235294,44.3132036 28.8235294,43.1762295 C28.8235294,42.0392555 27.9011765,41.1202186 26.7647059,41.1202186 L12.3529412,41.1202186 L12.3529412,37.0081967 L26.7647059,37.0081967 C27.9011765,37.0081967 28.8235294,36.0891598 28.8235294,34.9521858 C28.8235294,33.8152117 27.9011765,32.8961749 26.7647059,32.8961749 L12.3529412,32.8961749 L12.3529412,28.784153 L26.7647059,28.784153 C27.9011765,28.784153 28.8235294,27.8651161 28.8235294,26.7281421 C28.8235294,25.591168 27.9011765,24.6721311 26.7647059,24.6721311 L12.4579412,24.6721311 C13.1744118,16.7832172 17.9632353,10.0641735 24.7058824,6.60801913 L24.7058824,14.3920765 C24.7058824,15.5290505 25.6282353,16.4480874 26.7647059,16.4480874 C27.9011765,16.4480874 28.8235294,15.5290505 28.8235294,14.3920765 L28.8235294,4.98993852 C30.1514706,4.61163251 31.5247059,4.34435109 32.9411765,4.21687842 L32.9411765,14.3920765 C32.9411765,15.5290505 33.8635294,16.4480874 35,16.4480874 C36.1364706,16.4480874 37.0588235,15.5290505 37.0588235,14.3920765 L37.0588235,4.21687842 C38.4732353,4.34435109 39.8485294,4.61163251 41.1764706,4.98993852 L41.1764706,14.3920765 C41.1764706,15.5290505 42.0988235,16.4480874 43.2352941,16.4480874 C44.3717647,16.4480874 45.2941176,15.5290505 45.2941176,14.3920765 L45.2941176,6.60801913 C52.0367647,10.0621175 56.8255882,16.7811612 57.5420588,24.6721311 L43.2352941,24.6721311 C42.0988235,24.6721311 41.1764706,25.591168 41.1764706,26.7281421 C41.1764706,27.8651161 42.0988235,28.784153 43.2352941,28.784153 L57.6470588,28.784153 L57.6470588,32.8961749 L43.2352941,32.8961749 C42.0988235,32.8961749 41.1764706,33.8152117 41.1764706,34.9521858 C41.1764706,36.0891598 42.0988235,37.0081967 43.2352941,37.0081967 L57.6470588,37.0081967 L57.6470588,41.1202186 L43.2352941,41.1202186 C42.0988235,41.1202186 41.1764706,42.0392555 41.1764706,43.1762295 C41.1764706,44.3132036 42.0988235,45.2322404 43.2352941,45.2322404 L57.6470588,45.2322404 L57.6470588,49.3442623 L12.3529412,49.3442623 L12.3529412,45.2322404 Z M57.5420588,53.4562842 C56.4982353,64.9658333 46.7929412,74.0163934 35,74.0163934 C23.2070588,74.0163934 13.5017647,64.9658333 12.4579412,53.4562842 L57.5420588,53.4562842 Z M35,82.2404372 C18.3791176,82.2404372 5.25,69.7501708 4.21852941,53.4562842 L8.34029412,53.4562842 C9.39852941,67.2336134 20.9361765,78.1284153 35,78.1284153 C49.0638235,78.1284153 60.6014706,67.2336134 61.6597059,53.4562842 L65.7814706,53.4562842 C64.75,69.7501708 51.6208824,82.2404372 35,82.2404372 Z" id="Shape"></path>
        </g>
    </g>
</svg>